<?xml version="1.0" encoding="utf-8"?>
<!-- Generator: Adobe Illustrator 24.0.1, SVG Export Plug-In . SVG Version: 6.00 Build 0)  -->
<svg version="1.1" id="Layer_1" xmlns="http://www.w3.org/2000/svg" xmlns:xlink="http://www.w3.org/1999/xlink" x="0px" y="0px"
	 viewBox="0 0 512 512" style="enable-background:new 0 0 512 512;" xml:space="preserve">
<style type="text/css">
	.st0{fill:#50A6EA;}
	.st1{fill:#72BCEF;}
	.st2{fill:#E5F5FD;stroke:url(#SVGID_1_);stroke-miterlimit:10;}
	.st3{fill:#49C160;}
	.st4{fill:#5AE070;}
	.st5{fill:#4A5160;}
	.st6{fill:#58606D;}
	.st7{fill:#EFC597;}
	.st8{fill:#D8AD82;}
	.st9{fill:#FFD8B7;}
	.st10{fill:#E8BC9E;}
	.st11{fill:#475673;}
	.st12{fill:#284268;}
	.st13{fill:#49C160;stroke:url(#SVGID_2_);stroke-width:9;stroke-miterlimit:10;}
</style>
<path class="st0" d="M242,420.9c-2.7-13.1-11.2-24.3-23.2-30.3l-51-21.8v-1.3c-24.4,11.4-52.5,11.4-76.9,0v1.3l-51,21.8
	c-13.6,6.8-22.7,20.2-24,35.4v55.4h226.8v-55.4C242.6,424.2,242.4,422.5,242,420.9z"/>
<path class="st1" d="M70,390.5l39.3-16.8c-6.3-1.4-12.5-3.5-18.4-6.3v1.3l-51,21.8c-13.6,6.8-22.7,20.2-24,35.4v55.4h30v-55.4
	C47.3,410.8,56.3,397.4,70,390.5L70,390.5z"/>
<linearGradient id="SVGID_1_" gradientUnits="userSpaceOnUse" x1="185.3327" y1="234.962" x2="496.5" y2="234.962">
	<stop  offset="0" style="stop-color:#FFFFFF"/>
	<stop  offset="1" style="stop-color:#000000"/>
</linearGradient>
<path class="st2" d="M496,69v331.8c0,11-8.9,20-20,20c0,0,0,0,0,0H242c-2.7-13.1-11.2-24.3-23.2-30.3l-32.8-14v-58.8l0,0
	c14.2-15,22.2-35,22.1-55.7v-10.3c11.3-2,18.9-12.8,16.9-24.1c-0.1-0.4-0.2-0.9-0.3-1.3c-1.6-6.6-7.3-11.4-14-11.9h-2v-31.6
	c0-21.2-8.1-41.7-22.8-57V69c0-11,9-20,20-20h49.4v16h181.1V49H476C487,49,496,58,496,69z"/>
<circle class="st3" cx="287.9" cy="171.9" r="60"/>
<path class="st4" d="M247.9,171.9c0-29.3,21.1-54.3,50-59.2c-32.7-5.5-63.6,16.4-69.2,49.1c-5.5,32.7,16.4,63.6,49.1,69.2
	c6.6,1.1,13.4,1.1,20.1,0C269,226.2,247.9,201.2,247.9,171.9z"/>
<path class="st5" d="M208.8,214.4v0.9c0,0-70.8,12.5-118.3-29.8c-9.8,0.8-19.5,1.1-29.3,0.7L59,222.5c-0.1,0.9-0.9,1.6-1.8,1.5
	c-0.2,0-0.4-0.1-0.6-0.2l-9.8-5c-2.1-1.1-3.5-3.2-3.7-5.6v-30.5c0-45.8,37.1-82.9,82.9-82.8c45.7,0,82.8,37.1,82.8,82.8V214.4z"/>
<path class="st6" d="M87.3,124.1c13.1-13.1,30.2-21.5,48.7-23.7c-3.3-0.4-6.7-0.6-10.1-0.6c-45.8,0-82.9,37.1-82.9,82.9v30.5
	c0.2,2.4,1.6,4.5,3.7,5.6l9.8,5c0.8,0.4,1.8,0.1,2.3-0.7c0.1-0.2,0.2-0.4,0.2-0.6C59,222.5,54.7,156.8,87.3,124.1z"/>
<path class="st7" d="M167.8,332.2v35.2c-24.4,11.4-52.5,11.4-76.9,0v-32.6C115.4,346.9,144.3,346,167.8,332.2z"/>
<path class="st8" d="M110.9,367.5v-25.8c-6.9-1.4-13.7-3.7-20-6.8v32.6c15.1,7.1,31.9,9.8,48.4,8
	C129.5,374.4,119.9,371.7,110.9,367.5z"/>
<path class="st9" d="M167.8,332.2c-38.7,22.6-88.5,9.5-111-29.3c-7.2-12.4-11-26.5-11-40.9v-10.3c-11.4-2-18.9-12.9-16.9-24.2
	c0.1-0.4,0.2-0.8,0.3-1.3c1.6-6.6,7.3-11.4,14-11.9l0.1,0c0.5,1.9,1.7,3.5,3.5,4.4l9.8,5c0.8,0.4,1.8,0.1,2.3-0.7
	c0.1-0.2,0.2-0.4,0.2-0.6l2.2-36.3c9.8,0.3,19.6,0.1,29.3-0.7c47.5,42.3,118.3,29.8,118.3,29.8v-0.9h2c6.8,0.5,12.4,5.3,14,11.9
	c2.7,11.2-4.1,22.5-15.3,25.2c-0.4,0.1-0.9,0.2-1.3,0.3v10.3c0,20.7-7.9,40.7-22.1,55.7c-0.5,0.6-1.1,1.1-1.6,1.7
	C179.4,324.4,173.9,328.7,167.8,332.2z"/>
<path class="st10" d="M110.9,334.9c-27.7-13.7-45.2-41.9-45.2-72.8v-10.3c-11.4-2-18.9-12.9-16.9-24.2c0.1-0.4,0.2-0.8,0.3-1.3
	c0.4-1.8,1.2-3.6,2.3-5.1l-4.7-2.4c-1.8-0.9-3-2.5-3.5-4.4l-0.1,0c-6.8,0.5-12.4,5.3-14,11.9c-2.7,11.2,4.1,22.5,15.3,25.2
	c0.4,0.1,0.9,0.2,1.3,0.3v10.3c0,44.8,36.3,81.2,81.1,81.2c0,0,0.1,0,0.1,0c3.3,0,6.7-0.2,10-0.6
	C127.9,341.6,119.1,338.9,110.9,334.9L110.9,334.9z"/>
<path class="st11" d="M255.4,30.6h181.1V65H255.4V30.6z"/>
<path class="st12" d="M476,43.1h-33.4V30.6c0-3.3-2.7-6-6-6H255.5c-3.3,0-6,2.7-6,6v12.4H206c-14.4,0-26,11.6-26,26v43.2
	c-38.9-29.9-94.6-22.6-124.5,16.2c-12,15.5-18.4,34.6-18.4,54.2v26.9c-6.9,2.4-12.1,8.2-13.8,15.3c-3.2,13.1,3.8,26.6,16.4,31.5v5.7
	c0,31.8,17.3,61.1,45.2,76.4v26.4L37.6,385c-0.1,0-0.2,0.1-0.3,0.2c-15.5,7.8-25.8,23-27.3,40.3c0,0.2,0,0.3,0,0.5v55.4
	c0,3.3,2.7,6,6,6h226.8c3.3,0,6-2.7,6-6v-54.5H476c14.4,0,26-11.6,26-26V69C502,54.7,490.4,43.1,476,43.1L476,43.1z M261.5,36.6
	h169.1V59H261.5V36.6z M49.1,182.7c0-42.4,34.4-76.9,76.8-76.9s76.9,34.4,76.9,76.8c0,0,0,0,0,0V210c-14.9,1.6-60.3,4-96.7-20.1
	c25-3.3,55.6-11,78.2-28.4c2.7-2,3.2-5.7,1.3-8.4c-2-2.7-5.7-3.2-8.4-1.3c-0.1,0-0.1,0.1-0.2,0.1c-41.2,31.6-114.8,28.3-115.5,28.2
	c-3.3-0.2-6.1,2.3-6.3,5.6l-1.8,29.6l-3.9-2c-0.2-0.1-0.4-0.3-0.4-0.5L49.1,182.7z M51.8,262.1v-10.3c0-2.9-2.1-5.4-5-5.9
	c-8.1-1.4-13.5-9.1-12-17.2c0.1-0.3,0.1-0.6,0.2-0.9c0.7-2.9,2.6-5.3,5.3-6.5c1,1.2,2.3,2.2,3.7,2.9l9.8,5c3.8,1.9,8.4,0.5,10.3-3.3
	c0.5-0.9,0.7-1.9,0.8-2.9c0,0,0-0.1,0-0.1l1.9-30.5c4.9,0,12.5,0,21.7-0.7c49,41.7,118.4,30,121.3,29.5c0.6-0.1,1.2-0.3,1.8-0.6
	c3.6,0.7,6.5,3.5,7.3,7.2c1.9,8-2.9,16-10.9,17.9c-0.3,0.1-0.6,0.1-0.9,0.2c-2.9,0.5-5,3-5,5.9v10.3c-0.2,41.5-33.9,75.1-75.5,74.9
	C85.4,336.9,51.9,303.4,51.8,262.1L51.8,262.1z M180,331.2v36.3l-6.2-2.7v-29.2C176,334.2,178,332.8,180,331.2z M161.8,342v21.5
	c-20.8,8.5-44.1,8.5-64.9,0V344C118,351.7,141.3,351,161.8,342L161.8,342z M236.8,475.4H22v-49.2c1.2-12.9,8.9-24.3,20.5-30.2
	l50-21.3c23.7,9.7,50.2,9.7,73.9,0l50,21.3c11.6,5.9,19.3,17.3,20.5,30.2V475.4z M490,400.9c0,7.7-6.3,14-14,14H246.7
	c-4-12.9-13.1-23.6-25.2-29.7c-0.1-0.1-0.2-0.1-0.3-0.2L192,372.6v-52.5c14.3-15.9,22.1-36.6,22.1-58v-5.7
	c12.6-4.9,19.7-18.3,16.4-31.4c-1.9-7.8-8-14-15.8-15.9v-26.3c0-21.9-8.1-43-22.8-59.3V69c0-7.7,6.3-14,14-14h43.4v10
	c0,3.3,2.7,6,6,6h181.1c3.3,0,6-2.7,6-6v-10H476c7.7,0,14,6.3,14,14V400.9z"/>
<path class="st12" d="M446.6,221.7h-43.9c-3.3,0-6,2.7-6,6s2.7,6,6,6h43.9c3.3,0,6-2.7,6-6S449.9,221.7,446.6,221.7z"/>
<path class="st12" d="M362.2,233.7h14.7c3.3,0,6-2.7,6-6s-2.7-6-6-6h-14.7c-3.3,0-6,2.7-6,6S358.8,233.7,362.2,233.7z"/>
<path class="st12" d="M446.6,286.6h-14.9c-3.3,0-6,2.7-6,6s2.7,6,6,6h14.9c3.3,0,6-2.7,6-6S449.9,286.6,446.6,286.6z"/>
<path class="st12" d="M410.9,298.6c3.3,0,6-2.7,6-6s-2.7-6-6-6h-79.5c-3.3,0-6,2.7-6,6s2.7,6,6,6H410.9z"/>
<path class="st12" d="M310.4,286.6h-5.4c-3.3,0-6,2.7-6,6s2.7,6,6,6h5.4c3.3,0,6-2.7,6-6S313.8,286.6,310.4,286.6z"/>
<path class="st12" d="M245.2,286.6c-3.3,0-6,2.7-6,6s2.7,6,6,6h34c3.3,0,6-2.7,6-6s-2.7-6-6-6H245.2z"/>
<path class="st12" d="M446.6,346.6h-34.3c-3.3,0-6,2.7-6,6s2.7,6,6,6h34.3c3.3,0,6-2.7,6-6S449.9,346.6,446.6,346.6z"/>
<path class="st12" d="M390.7,346.6h-4.3c-3.3,0-6,2.7-6,6s2.7,6,6,6h4.3c3.3,0,6-2.7,6-6S394,346.6,390.7,346.6L390.7,346.6z"/>
<path class="st12" d="M310.4,346.6h-65.2c-3.3,0-6,2.7-6,6s2.7,6,6,6h65.2c3.3,0,6-2.7,6-6S313.8,346.6,310.4,346.6z"/>
<path class="st12" d="M446.6,170.6h-3.9c-3.3,0-6,2.7-6,6s2.7,6,6,6h3.9c3.3,0,6-2.7,6-6S449.9,170.6,446.6,170.6z"/>
<path class="st12" d="M374.3,182.6h42.5c3.3,0,6-2.7,6-6s-2.7-6-6-6h-42.5c-3.3,0-6,2.7-6,6S371,182.6,374.3,182.6z"/>
<path class="st12" d="M446.6,120.6h-42.9c-3.3,0-6,2.7-6,6c0,3.3,2.7,6,6,6h42.9c3.3,0,6-2.7,6-6S449.9,120.6,446.6,120.6z"/>
<path class="st12" d="M374.3,132.6h3.5c3.3,0,6-2.7,6-6s-2.7-6-6-6h-3.5c-3.3,0-6,2.7-6,6S371,132.6,374.3,132.6z"/>
<path class="st12" d="M287.9,237.9c36.5,0,66-29.5,66-66s-29.5-66-66-66s-66,29.5-66,66C221.9,208.4,251.4,237.9,287.9,237.9z
	 M287.9,117.9c29.8,0,54,24.2,54,54s-24.2,54-54,54s-54-24.2-54-54C233.9,142.1,258.1,118,287.9,117.9z"/>
<path class="st12" d="M270.3,198.1c2.3,2.3,6.1,2.3,8.5,0l43.8-43.8c2.3-2.4,2.3-6.2-0.1-8.5c-2.3-2.3-6.1-2.3-8.4,0l-39.6,39.6
	l-12.9-12.9c-2.3-2.4-6.1-2.4-8.5-0.1c-2.4,2.3-2.4,6.1-0.1,8.5c0,0,0.1,0.1,0.1,0.1L270.3,198.1z"/>
<path class="st4" d="M247.9,311.9c0-29.3,21.1-54.3,50-59.2c-32.7-5.5-63.6,16.4-69.2,49.1c-5.5,32.7,16.4,63.6,49.1,69.2
	c6.6,1.1,13.4,1.1,20.1,0C269,366.2,247.9,341.2,247.9,311.9z"/>
<linearGradient id="SVGID_2_" gradientUnits="userSpaceOnUse" x1="223.37" y1="311.917" x2="352.37" y2="311.917">
	<stop  offset="0" style="stop-color:#284268"/>
	<stop  offset="1" style="stop-color:#284268"/>
</linearGradient>
<circle class="st13" cx="287.9" cy="311.9" r="60"/>
<g>
	<path class="st12" d="M296.1,305.9h-32.6c-3.3,0-6,2.7-6,6s2.7,6,6,6h32.6c3.3,0,6-2.7,6-6S299.4,305.9,296.1,305.9L296.1,305.9z"
		/>
	<path class="st12" d="M316.1,305.9h-32.6c-3.3,0-6,2.7-6,6s2.7,6,6,6h32.6c3.3,0,6-2.7,6-6S319.4,305.9,316.1,305.9L316.1,305.9z"
		/>
</g>
</svg>
